<svg xmlns="http://www.w3.org/2000/svg" width="311.22" height="68.61" viewBox="0 0 311.22 68.61"><title>logo</title><g id="Layer_3" data-name="Layer 3"><path d="M76,49.94a3.52,3.52,0,0,1-1,2.49L59.24,68.2a1.41,1.41,0,0,1-2.4-1V31.87L75.82,13H76Z" style="fill:#e34b5f"/><path d="M63.46.41a1.41,1.41,0,0,0-2,0L38,23.86h-.33V50.32L38,51,56.84,32.2,76,13Z" style="fill:#e7ce9c"/><path d="M0,49.94a3.52,3.52,0,0,0,1,2.49L16.8,68.2a1.41,1.41,0,0,0,2.4-1V31.87L.22,13H0Z" style="fill:#1e7889"/><path d="M14.57.41a1.41,1.41,0,0,0-2,0L0,13,19.2,32.2,38,51V23.86Z" style="fill:#97baa6"/><path d="M99.64,49.94V14.69H109v4.73A10.43,10.43,0,0,1,118.61,14a10.73,10.73,0,0,1,9.78,5.65c3.68-3.87,6.5-5.65,10.9-5.65,7.94,0,12.41,4.46,12.41,12.67V49.94H141.59V30.84c0-4.92-1.05-7.16-4.92-7.16s-6,2.43-6,7.16v19.1H120.45V30.84c0-4.92-1.05-7.16-4.92-7.16s-6,2.43-6,7.16v19.1Z" style="fill:#fff"/><path d="M164.17,19.29A18.61,18.61,0,0,1,196,32.09a18,18,0,0,1-5.32,13.26,18.28,18.28,0,0,1-13.39,5.51A17.42,17.42,0,0,1,164,45.22a18.42,18.42,0,0,1-5.19-13A18.07,18.07,0,0,1,164.17,19.29ZM177.37,41a8.51,8.51,0,0,0,8.34-8.67,8.35,8.35,0,1,0-16.67,0A8.55,8.55,0,0,0,177.37,41Z" style="fill:#fff"/><path d="M203.11,49.94V14.69H213l-.13,4.73C215,15.87,218.27,14,222.93,14c7.29,0,12,4.6,12,12.67V49.94H224.57V30.84c0-4.92-1.05-7.16-5.05-7.16s-6.24,2.43-6.24,7.16v19.1Z" style="fill:#fff"/><path d="M279.38,19.29a18.61,18.61,0,0,1,31.84,12.8,18,18,0,0,1-5.32,13.26,18.28,18.28,0,0,1-13.39,5.51,17.42,17.42,0,0,1-13.33-5.65,18.42,18.42,0,0,1-5.19-13A18.07,18.07,0,0,1,279.38,19.29ZM292.58,41a8.51,8.51,0,0,0,8.34-8.67,8.35,8.35,0,1,0-16.67,0A8.55,8.55,0,0,0,292.58,41Z" style="fill:#fff"/><path d="M242.74,49.94V42.59l14.51-18.77H242.74V14.69h26.19V23l-12.8,17.79H269.2v9.12Z" style="fill:#fff"/></g></svg>